<svg xmlns="http://www.w3.org/2000/svg" width="134.785" height="50" viewBox="0 0 134.785 50" fill="none" role="img"><title>Scholar</title><defs>
  <filter id="softShadow" x="-30%" y="-30%" width="160%" height="160%">
    <feDropShadow dx="0" dy="8" stdDeviation="7" flood-color="#2B2620" flood-opacity="0.32"/>
  </filter></defs><rect x="6" y="3" width="122.78" height="44" rx="22" fill="#36513C"/><g transform="translate(28.00 16.50) scale(0.7083)"><path d="M5.242 13.769L0 9.5 12 0l12 9.5-5.242 4.269C17.548 11.249 14.978 9.5 12 9.5c-2.977 0-5.548 1.748-6.758 4.269zM12 10a7 7 0 1 0 0 14 7 7 0 0 0 0-14z" fill="#FFFFFF"/></g><path d="M54.6 22.6L54.6 22.6Q54.6 21.2 55.7 20.2Q56.8 19.3 58.5 19.3L58.5 19.3Q60.2 19.3 61.1 20.2Q62.1 21.1 62.2 22.6L62.2 22.6L60.3 22.6Q60.2 21.8 59.7 21.4Q59.3 21.1 58.5 21.1L58.5 21.1Q57.6 21.1 57 21.4Q56.5 21.8 56.5 22.5L56.5 22.5Q56.5 23.7 57.8 24L57.8 24L59.6 24.3Q62.4 24.9 62.4 27.3L62.4 27.3Q62.4 28.9 61.3 29.8Q60.2 30.7 58.4 30.7L58.4 30.7Q56.6 30.7 55.5 29.8Q54.5 29 54.4 27.5L54.4 27.5L56.4 27.5Q56.4 28.2 56.9 28.6Q57.4 29 58.4 29L58.4 29Q59.3 29 59.9 28.6Q60.4 28.2 60.4 27.5L60.4 27.5Q60.4 26.4 59.2 26.1L59.2 26.1L57.4 25.7Q54.6 25.1 54.6 22.6M63.4 26.8L63.4 26.8Q63.4 25.1 64.4 24Q65.5 22.9 67.1 22.9L67.1 22.9Q68.6 22.9 69.6 23.7Q70.5 24.4 70.7 25.8L70.7 25.8L68.9 25.8Q68.6 24.5 67.2 24.5L67.2 24.5Q66.3 24.5 65.8 25.1Q65.2 25.7 65.2 26.8L65.2 26.8Q65.2 27.8 65.7 28.4Q66.2 29 67.1 29L67.1 29Q67.8 29 68.3 28.7Q68.7 28.4 68.9 27.8L68.9 27.8L70.7 27.8Q70.5 29.1 69.5 29.9Q68.6 30.7 67.1 30.7L67.1 30.7Q65.4 30.7 64.4 29.6Q63.4 28.6 63.4 26.8M73.9 26.5L73.9 30.5L72.1 30.5L72.1 19.3L73.9 19.3L73.9 24.1Q74.3 23.5 74.9 23.2Q75.5 22.9 76.3 22.9L76.3 22.9Q77.7 22.9 78.4 23.7Q79.1 24.5 79.1 25.9L79.1 25.9L79.1 30.5L77.3 30.5L77.3 26.4Q77.3 25.5 76.9 25Q76.5 24.5 75.7 24.5L75.7 24.5Q74.9 24.5 74.4 25.1Q73.9 25.6 73.9 26.5L73.9 26.5M81.6 29.6Q80.5 28.5 80.5 26.8Q80.5 25.1 81.6 24Q82.7 22.9 84.4 22.9Q86.2 22.9 87.3 24Q88.4 25.1 88.4 26.8Q88.4 28.5 87.3 29.6Q86.2 30.7 84.4 30.7Q82.7 30.7 81.6 29.6M82.9 25.1Q82.3 25.8 82.3 26.8Q82.3 27.8 82.9 28.4Q83.5 29 84.4 29Q85.4 29 86 28.4Q86.6 27.8 86.6 26.8Q86.6 25.8 86 25.1Q85.4 24.5 84.4 24.5Q83.5 24.5 82.9 25.1M91.7 19.3L91.7 30.5L89.9 30.5L89.9 19.3L91.7 19.3M95.8 30.7L95.8 30.7Q94.6 30.7 94 30.1Q93.3 29.4 93.3 28.4L93.3 28.4Q93.3 27.4 94 26.8Q94.7 26.1 96 26L96 26L98.2 25.9L98.2 25.7Q98.2 24.3 96.7 24.3L96.7 24.3Q95.9 24.3 95.5 24.6Q95 24.9 95 25.5L95 25.5L93.5 25.5Q93.5 24.3 94.4 23.6Q95.3 22.9 96.8 22.9Q98.3 22.9 99.2 23.7Q100 24.5 100 26L100 26L100 30.5L98.4 30.5L98.3 29.4Q98.1 30 97.4 30.3Q96.7 30.7 95.8 30.7M96.4 29.3L96.4 29.3Q97.3 29.3 97.8 28.8Q98.3 28.4 98.3 27.5L98.3 27.5L98.3 27.1L96.7 27.2Q95.1 27.4 95.1 28.3L95.1 28.3Q95.1 29.3 96.4 29.3M106.5 23.1L106.5 23.1L106.5 24.8L105.8 24.8Q104.8 24.8 104.2 25.3Q103.7 25.8 103.7 26.9L103.7 26.9L103.7 30.5L101.8 30.5L101.8 23.1L103.6 23.1L103.7 24.2Q103.9 23.6 104.4 23.3Q105 23 105.7 23L105.7 23Q106.1 23 106.5 23.1" fill="#FFFFFF"/></svg>